<?xml version="1.0" standalone="no"?>
<!DOCTYPE svg PUBLIC "-//W3C//DTD SVG 20010904//EN"
 "http://www.w3.org/TR/2001/REC-SVG-20010904/DTD/svg10.dtd">
<svg version="1.0" xmlns="http://www.w3.org/2000/svg"
 width="1024.000000pt" height="1024.000000pt" viewBox="0 0 1024.000000 1024.000000"
 preserveAspectRatio="xMidYMid meet">

<g transform="translate(0.000000,1024.000000) scale(0.100000,-0.100000)"
fill="#000000" stroke="none">
<path d="M0 5120 l0 -5120 5120 0 5120 0 0 5120 0 5120 -5120 0 -5120 0 0
-5120z m5290 3671 c74 -79 233 -347 432 -726 170 -323 245 -441 397 -625 94
-114 188 -203 274 -262 57 -39 126 -73 133 -65 2 2 -16 35 -41 75 -63 101
-185 352 -171 352 1 0 90 -88 197 -195 188 -189 228 -241 229 -294 0 -22 -2
-23 -42 -17 -87 14 -388 46 -571 61 -291 23 -747 18 -892 -11 -42 -8 78 63
220 131 210 101 287 101 539 0 92 -37 170 -65 172 -62 9 8 -88 107 -170 173
-44 37 -110 80 -146 97 -117 57 -292 49 -638 -29 -398 -89 -622 -198 -622
-301 0 -10 11 -41 24 -69 l24 -52 -82 -45 c-198 -110 -262 -132 -376 -125
-116 7 -154 32 -205 133 -53 106 -86 147 -160 200 -109 78 -290 145 -527 196
l-108 22 48 51 c121 129 192 237 328 498 121 230 149 275 231 371 186 218 530
418 872 507 166 44 404 73 526 64 57 -4 62 -7 105 -53z m2281 -1884 c101 -68
121 -202 68 -461 -33 -161 -84 -298 -198 -532 -121 -247 -162 -304 -216 -304
-43 0 -48 -18 -15 -47 33 -28 66 -102 87 -197 23 -101 22 -418 -1 -543 -56
-305 -161 -463 -309 -463 -184 0 -276 334 -197 721 21 101 55 190 76 196 7 3
7 -15 -2 -59 -20 -94 -36 -352 -28 -442 21 -252 144 -385 252 -273 42 44 88
146 107 241 55 275 38 594 -40 712 l-16 25 -30 -25 c-39 -33 -102 -50 -163
-42 -58 6 -88 31 -113 92 -10 24 -21 44 -24 44 -4 0 -20 -35 -37 -77 -17 -43
-60 -154 -97 -248 -90 -230 -190 -432 -266 -539 -287 -403 -979 -896 -1488
-1060 -164 -53 -285 -70 -466 -63 -287 10 -426 74 -501 232 -44 93 -22 212 48
254 41 26 128 45 288 66 160 21 247 41 289 66 41 25 35 33 -54 78 -33 17 -54
30 -46 31 8 0 123 58 255 129 133 71 262 134 286 141 25 6 55 18 68 26 20 13
21 18 10 31 -15 18 -105 63 -127 63 -8 0 -100 51 -205 114 -105 63 -222 129
-259 147 -67 31 -71 31 -165 25 -53 -3 -122 -9 -152 -12 -45 -5 -71 0 -144 24
-69 23 -96 28 -120 21 l-31 -8 35 30 c86 74 156 117 205 125 43 8 53 15 79 53
22 33 44 50 92 72 76 35 137 37 212 9 66 -25 106 -25 147 0 47 29 80 109 69
168 l-7 34 -17 -40 c-39 -86 -83 -102 -153 -53 -137 93 -211 99 -386 29 -84
-34 -108 -33 -173 8 -93 57 -150 128 -167 207 -12 53 -13 52 68 244 28 67 79
202 112 300 97 283 135 353 188 353 36 0 97 -70 160 -186 147 -270 266 -404
433 -488 132 -66 225 -88 373 -89 197 -2 362 47 528 155 113 74 301 260 411
405 81 108 257 373 277 416 11 24 16 25 123 31 61 4 141 9 177 12 l67 6 8
-109 c5 -59 9 -223 9 -363 0 -273 -9 -354 -51 -470 -13 -35 -21 -66 -19 -68 7
-8 66 90 130 218 73 145 118 218 185 293 l42 48 34 -97 c44 -126 44 -169 0
-248 -43 -77 -52 -131 -32 -180 18 -43 46 -49 46 -8 0 43 29 80 115 146 109
84 130 123 130 239 l0 88 -90 83 -90 83 94 102 c102 111 115 117 172 78 53
-36 62 -75 56 -261 l-5 -160 30 75 c55 138 80 238 81 330 1 76 -2 92 -28 145
-17 34 -41 65 -56 73 -39 22 -100 0 -160 -56 -27 -25 -52 -43 -55 -40 -11 11
37 102 74 140 45 47 63 56 123 56 32 1 56 -6 80 -22z m-3981 -1112 c0 -6 -213
-516 -252 -605 -43 -96 -77 -102 -126 -22 -95 155 -156 438 -104 485 10 9 117
46 238 81 223 65 244 70 244 61z m2759 -1432 c-12 -100 -11 -356 1 -453 14
-113 44 -222 82 -292 39 -73 141 -171 212 -204 37 -17 56 -31 56 -43 0 -56
-88 -249 -197 -431 -459 -768 -1162 -1374 -1783 -1537 -135 -36 -304 -38 -410
-5 -98 31 -151 62 -228 136 -118 113 -216 285 -291 512 -44 131 -94 354 -80
354 5 0 9 -6 9 -13 0 -26 101 -166 159 -220 85 -78 147 -101 277 -102 100 0
103 1 185 42 112 57 220 151 360 314 154 179 208 247 329 419 262 369 479 634
989 1210 134 151 262 298 285 327 23 29 43 52 47 52 3 1 2 -29 -2 -66z"/>
</g>
</svg>
